<svg id="visual" viewBox="0 0 1000 500" width="1000" height="500" xmlns="http://www.w3.org/2000/svg" xmlns:xlink="http://www.w3.org/1999/xlink" version="1.1"><path d="M0 293L23.8 292.5C47.7 292 95.3 291 143 316C190.7 341 238.3 392 286 419.5C333.7 447 381.3 451 428.8 447.8C476.3 444.7 523.7 434.3 571.2 418.2C618.7 402 666.3 380 714 389.5C761.7 399 809.3 440 857 445.8C904.7 451.7 952.3 422.3 976.2 407.7L1000 393L1000 501L976.2 501C952.3 501 904.7 501 857 501C809.3 501 761.7 501 714 501C666.3 501 618.7 501 571.2 501C523.7 501 476.3 501 428.8 501C381.3 501 333.7 501 286 501C238.3 501 190.7 501 143 501C95.3 501 47.7 501 23.8 501L0 501Z" fill="#1c1d22" stroke-linecap="round" stroke-linejoin="miter"></path></svg>