<svg id="visual" viewBox="0 0 900 1000" width="900" height="1000" xmlns="http://www.w3.org/2000/svg" xmlns:xlink="http://www.w3.org/1999/xlink" version="1.1"><path d="M857 1000L862.7 976.2C868.3 952.3 879.7 904.7 754.3 857C629 809.3 367 761.7 231 714C95 666.3 85 618.7 123.3 571.2C161.7 523.7 248.3 476.3 344.7 428.8C441 381.3 547 333.7 595.5 286C644 238.3 635 190.7 664.8 143C694.7 95.3 763.3 47.7 797.7 23.8L832 0L900 0L900 23.8C900 47.7 900 95.3 900 143C900 190.7 900 238.3 900 286C900 333.7 900 381.3 900 428.8C900 476.3 900 523.7 900 571.2C900 618.7 900 666.3 900 714C900 761.7 900 809.3 900 857C900 904.7 900 952.3 900 976.2L900 1000Z" fill="#1c1d22" stroke-linecap="round" stroke-linejoin="miter"></path></svg>