<svg id="visual" viewBox="0 0 960 540" width="960" height="540" xmlns="http://www.w3.org/2000/svg" xmlns:xlink="http://www.w3.org/1999/xlink" version="1.1"><g transform="translate(1154.616932067854 521.2113902771226)"><path d="M360 -730.4C360 -623.5 180 -311.8 140.5 -155.9C101 0 202 0 245 24.8C288 49.7 273.1 99.3 284.5 206.6C295.9 313.8 333.7 478.6 290.7 610.6C247.7 742.6 123.8 841.8 20.2 806.9C-83.5 772 -167 602.9 -206.1 468.7C-245.2 334.4 -240 235 -301.4 162.6C-362.8 90.3 -490.9 45.2 -599.6 -62.7C-708.3 -170.7 -797.5 -341.3 -720 -385.8C-642.5 -430.2 -398.3 -348.5 -250.5 -370C-102.7 -391.5 -51.3 -516.2 64.3 -627.7C180 -739.1 360 -837.2 360 -730.4" fill="#1c1d22"></path></g></svg>