<svg id="visual" viewBox="0 0 960 540" width="960" height="540" xmlns="http://www.w3.org/2000/svg" xmlns:xlink="http://www.w3.org/1999/xlink" version="1.1"><g transform="translate(937.6641963236528 48.91798845695092)"><path d="M373.6 -620.5C523.6 -560.6 711.7 -540 749 -443.2C786.2 -346.3 672.6 -173.2 631.2 -23.9C589.8 125.3 620.5 250.7 560.7 308.4C500.8 366.1 350.4 356.3 241.9 450.3C133.3 544.3 66.7 742.1 33.3 684.4C0 626.7 0 313.3 -155.9 246.7C-311.8 180 -623.5 360 -694.5 360C-765.5 360 -595.8 180 -563.7 18.5C-531.7 -143 -637.4 -286 -629 -394.5C-620.7 -503.1 -498.3 -577.2 -374.5 -652.2C-250.7 -727.2 -125.3 -803.1 -6.8 -791.4C111.8 -779.7 223.7 -680.4 373.6 -620.5" fill="#1c1d22"></path></g></svg>