<svg id="visual" viewBox="0 0 900 900" width="900" height="900" xmlns="http://www.w3.org/2000/svg" xmlns:xlink="http://www.w3.org/1999/xlink" version="1.1"><g transform="translate(856.2265769453853 891.2204055283987)"><path d="M719 -1069.3C946.3 -1114.1 1155.2 -950.8 1179.6 -737.9C1204 -525 1044 -262.5 1006.3 -21.8C968.7 219 1053.3 438 1034.2 660.1C1015.1 882.3 892.3 1107.5 702.7 1093.7C513 1079.9 256.5 826.9 128.2 604.8C0 382.7 0 191.3 -98 152.3C-196 113.2 -392 226.3 -633.4 226.3C-874.7 226.3 -1161.3 113.2 -1080.7 46.6C-1000 -20 -551.9 -40 -368.1 -139.6C-184.3 -239.2 -264.6 -418.4 -247.3 -494.9C-230 -571.4 -115 -545.2 65.4 -658.5C245.8 -771.8 491.7 -1024.6 719 -1069.3" fill="#1c1d22"></path></g></svg>