<svg id="visual" viewBox="0 0 540 960" width="540" height="960" xmlns="http://www.w3.org/2000/svg" xmlns:xlink="http://www.w3.org/1999/xlink" version="1.1"><rect x="0" y="0" width="540" height="960" fill="#ffffff"></rect><defs><linearGradient id="grad1_0" x1="0%" y1="0%" x2="100%" y2="100%"><stop offset="30%" stop-color="#ffffff" stop-opacity="1"></stop><stop offset="70%" stop-color="#ffffff" stop-opacity="1"></stop></linearGradient></defs><defs><linearGradient id="grad2_0" x1="0%" y1="0%" x2="100%" y2="100%"><stop offset="30%" stop-color="#ffffff" stop-opacity="1"></stop><stop offset="70%" stop-color="#ffffff" stop-opacity="1"></stop></linearGradient></defs><g transform="translate(540, 0)"><path d="M0 486C-51.3 448.3 -102.6 410.6 -162.3 391.7C-222 372.8 -290.1 372.7 -341.5 341.5C-393 310.3 -427.7 248.1 -449 186C-470.3 123.9 -478.2 61.9 -486 0L0 0Z" fill="#1c1d22"></path></g><g transform="translate(0, 960)"><path d="M0 -486C45.2 -437.4 90.4 -388.8 154.6 -373.2C218.8 -357.7 302.1 -375.1 343.7 -343.7C385.2 -312.2 385.1 -231.9 401.9 -166.5C418.7 -101 452.3 -50.5 486 0L0 0Z" fill="#1c1d22"></path></g></svg>