<svg id="visual" viewBox="0 0 1900 750" width="1900" height="750" xmlns="http://www.w3.org/2000/svg" xmlns:xlink="http://www.w3.org/1999/xlink" version="1.1"><g transform="translate(1824.3419590928563 702.5167311677565)"><path d="M273.5 -562.1C273.5 -376.5 136.8 -188.2 291.3 -21.7C445.8 144.8 891.6 289.7 1002.1 441.8C1112.6 593.9 887.8 753.2 664.9 866.1C442 979 221 1045.5 100.3 907.5C-20.4 769.4 -40.8 426.8 -108.9 263.6C-177.1 100.4 -293 116.6 -476.7 39.6C-660.4 -37.4 -911.7 -207.7 -876.5 -275.1C-841.3 -342.6 -519.4 -307.2 -325.5 -429.9C-131.7 -552.6 -65.8 -833.3 35.5 -882.1C136.8 -930.9 273.5 -747.8 273.5 -562.1" fill="#1c1d22"></path></g></svg>