<svg id="visual" viewBox="0 0 1200 50" width="1200" height="50" xmlns="http://www.w3.org/2000/svg" xmlns:xlink="http://www.w3.org/1999/xlink" version="1.1"><path d="M0 49L28.5 47.8C57 46.7 114 44.3 171.2 37C228.3 29.7 285.7 17.3 342.8 11.5C400 5.7 457 6.3 514.2 13.2C571.3 20 628.7 33 685.8 36.5C743 40 800 34 857.2 31C914.3 28 971.7 28 1028.8 27.7C1086 27.3 1143 26.7 1171.5 26.3L1200 26L1200 51L1171.5 51C1143 51 1086 51 1028.8 51C971.7 51 914.3 51 857.2 51C800 51 743 51 685.8 51C628.7 51 571.3 51 514.2 51C457 51 400 51 342.8 51C285.7 51 228.3 51 171.2 51C114 51 57 51 28.5 51L0 51Z" fill="#1c1d22" stroke-linecap="round" stroke-linejoin="miter"></path></svg>