<svg id="visual" viewBox="0 0 900 450" width="900" height="450" xmlns="http://www.w3.org/2000/svg" xmlns:xlink="http://www.w3.org/1999/xlink" version="1.1"><path d="M0 56L21.5 50.8C43 45.7 86 35.3 128.8 51.2C171.7 67 214.3 109 257.2 116.8C300 124.7 343 98.3 385.8 146.5C428.7 194.7 471.3 317.3 514.2 362.5C557 407.7 600 375.3 642.8 325.3C685.7 275.3 728.3 207.7 771.2 183.2C814 158.7 857 177.3 878.5 186.7L900 196L900 0L878.5 0C857 0 814 0 771.2 0C728.3 0 685.7 0 642.8 0C600 0 557 0 514.2 0C471.3 0 428.7 0 385.8 0C343 0 300 0 257.2 0C214.3 0 171.7 0 128.8 0C86 0 43 0 21.5 0L0 0Z" fill="#1c1d22" stroke-linecap="round" stroke-linejoin="miter"></path></svg>