<svg id="visual" viewBox="0 0 1000 250" width="1000" height="250" xmlns="http://www.w3.org/2000/svg" xmlns:xlink="http://www.w3.org/1999/xlink" version="1.1"><path d="M0 94L20.8 95.2C41.7 96.3 83.3 98.7 125 113.5C166.7 128.3 208.3 155.7 250 169.2C291.7 182.7 333.3 182.3 375 167C416.7 151.7 458.3 121.3 500 103.2C541.7 85 583.3 79 625 91.5C666.7 104 708.3 135 750 134.5C791.7 134 833.3 102 875 85C916.7 68 958.3 66 979.2 65L1000 64L1000 251L979.2 251C958.3 251 916.7 251 875 251C833.3 251 791.7 251 750 251C708.3 251 666.7 251 625 251C583.3 251 541.7 251 500 251C458.3 251 416.7 251 375 251C333.3 251 291.7 251 250 251C208.3 251 166.7 251 125 251C83.3 251 41.7 251 20.8 251L0 251Z" fill="#1c1d22" stroke-linecap="round" stroke-linejoin="miter"></path></svg>